<svg xmlns="http://www.w3.org/2000/svg">
    <symbol id="phone">
<path d="M12.669 13.1545C12.4344 13.6557 11.9652 13.9063 11.4959 14.1569C10.9094 14.5327 10.4402 14.658 9.85367 14.658C9.03253 14.658 8.21139 14.2822 7.50756 14.0316C6.92103 13.781 6.45181 13.5304 5.86528 13.2798C4.223 12.1522 2.34611 10.1474 1.40767 8.51861C1.05575 7.89214 0.821139 7.39096 0.586528 6.76449C0.351917 5.88743 0 5.13567 0 4.13331C0 3.50684 0.117306 2.88037 0.469222 2.25389C0.703833 1.75272 0.938445 1.25154 1.40767 1.00095C1.75958 1.00095 2.34611 0.875656 2.69803 0.875656C2.81533 0.875656 2.81533 0.875656 2.93264 0.875656C3.16725 1.00095 3.28456 1.37683 3.40186 1.62742C3.63647 2.25389 3.98839 2.75507 4.223 3.38154C4.45761 3.63213 4.69222 3.88272 4.69222 4.13331C4.69222 4.75978 3.04994 5.63684 3.04994 6.13802C3.04994 6.38861 3.28456 6.76449 3.40186 7.01508C4.34031 8.7692 5.51336 10.0221 7.15564 11.0245C7.39025 11.1498 7.74217 11.4004 7.97678 11.4004C8.446 11.4004 9.26714 9.64626 9.85367 9.64626C10.0883 9.64626 10.3229 9.89685 10.5575 10.1474C11.0267 10.5233 11.6133 10.7739 12.0825 11.1498C12.3171 11.2751 12.669 11.4004 12.7863 11.651C12.7863 11.7763 12.7863 11.7763 12.7863 11.9016C12.9036 12.1522 12.7863 12.7786 12.669 13.1545Z" fill="white"/>
    </symbol>

    <symbol id="design">
<path d="M43.6224 0.377541C43.352 0.106917 42.9749 -0.0297695 42.5941 0.00545453C42.4351 0.0198878 38.6411 0.38072 33.4378 2.12723C16.5036 7.34263 5.29627 23.7628 0.084737 35.6415C-0.243304 36.4259 0.419479 37.4759 1.41151 37.3891L7.16777 36.8291L6.60783 42.5849C6.54648 43.4123 7.34974 44.2837 8.35552 43.9116C29.0348 34.4891 41.6483 20.0671 43.9947 1.40583C44.0294 1.0248 43.8931 0.647993 43.6224 0.377541ZM26.9597 28.7069C24.6747 30.7864 22.4223 32.574 20.3403 34.0798V12.1341C22.5228 10.3454 24.7848 8.89566 26.9597 7.72519V28.7069ZM14.3821 37.9794C12.3358 39.1817 10.6086 40.0592 9.38698 40.6383L9.88497 35.5196C9.95886 34.8536 9.34273 34.0111 8.47744 34.1122L3.36042 34.6099C5.08912 30.9423 9.74492 22.4028 17.7627 14.4555V35.8653C16.5271 36.6844 15.3872 37.3889 14.3821 37.9794ZM39.405 9.81278C37.8914 14.2983 34.9521 20.7742 29.5372 26.2415V6.44123C33.0645 4.73768 38.4534 3.21067 41.194 2.80577C40.9314 4.3448 40.4041 6.85172 39.405 9.81278Z" fill="black"/>
    </symbol>

    <symbol id="materials">
<path d="M42.7109 15.5547H33.4859C33.4867 15.5466 33.4881 15.5386 33.489 15.5305C34.5624 14.6069 35.4204 13.5102 36.0436 12.264C36.2435 11.8644 36.2221 11.3899 35.9873 11.0099C35.7523 10.6298 35.3374 10.3984 34.8906 10.3984H32.9008C32.4691 9.17708 31.8389 8.04924 31.0187 7.03088C31.1239 5.62022 30.955 4.23997 30.5149 2.9198C30.3737 2.49596 30.023 2.1755 29.5882 2.07289C29.1533 1.97019 28.6965 2.10013 28.3805 2.41595L26.9706 3.82584C25.8057 3.26897 24.5654 2.91748 23.2672 2.77663C22.2944 1.63065 21.1731 0.723584 19.9983 0.136115C19.5987 -0.0636892 19.1243 -0.0423767 18.7441 0.19249C18.3642 0.427358 18.1328 0.842264 18.1328 1.28905V3.36479C16.9116 3.79645 15.7835 4.4268 14.7653 5.2469C13.3548 5.1418 11.9743 5.31067 10.6544 5.75076C10.2305 5.89204 9.91006 6.24275 9.80745 6.67751C9.70484 7.11226 9.8346 7.56928 10.1505 7.8851L11.5601 9.29482C11.0029 10.4606 10.6513 11.7017 10.5107 13.0009C9.647 13.7441 8.92306 14.5995 8.3484 15.5548H1.28906C0.577156 15.5548 0 16.1319 0 16.8438V22.0001C0 22.712 0.577156 23.2891 1.28906 23.2891H2.66406V42.711C2.66406 43.4229 3.24122 44.0001 3.95312 44.0001H9.10938C9.82128 44.0001 10.3984 43.4229 10.3984 42.711V38.3416L22 33.701L33.6016 38.3416V42.7109C33.6016 43.4228 34.1787 44 34.8906 44H40.0469C40.7588 44 41.3359 43.4228 41.3359 42.7109V23.2891H42.7109C43.4228 23.2891 44 22.7119 44 22V16.8437C44 16.1318 43.4228 15.5547 42.7109 15.5547ZM12.5384 14.6726C12.8324 14.445 13.0138 14.1015 13.0359 13.7302C13.122 12.2914 13.5325 10.9395 14.2563 9.71222C14.5549 9.20587 14.473 8.5616 14.0574 8.14592L13.7103 7.79882C14.1413 7.78558 14.5778 7.80681 15.0183 7.86258C15.3871 7.90933 15.7584 7.79452 16.0365 7.54745C17.1136 6.59062 18.3613 5.92383 19.745 5.56547C20.3137 5.41835 20.7109 4.90522 20.7109 4.31775V3.80771C21.0177 4.10952 21.3132 4.44287 21.5929 4.80415C21.8206 5.09815 22.1641 5.27948 22.5352 5.30165C23.974 5.38758 25.3259 5.79819 26.5533 6.52196C27.0597 6.82051 27.7039 6.73869 28.1195 6.3231L28.4668 5.97591C28.48 6.40689 28.4588 6.84354 28.403 7.28397C28.3563 7.6529 28.4711 8.02406 28.7182 8.30215C29.675 9.3793 30.3418 10.627 30.7001 12.0107C30.8474 12.5794 31.3606 12.9766 31.948 12.9766H32.4345C32.1384 13.2916 31.8137 13.586 31.4617 13.8586C31.1677 14.0863 30.9864 14.4298 30.9642 14.8009C30.9491 15.0536 30.923 15.3052 30.8872 15.5548H25.6455C25.7886 15.1513 25.8672 14.7176 25.8672 14.2657C25.8672 12.1333 24.1324 10.3985 22 10.3985C19.8676 10.3985 18.1328 12.1333 18.1328 14.2657C18.1328 14.7176 18.2114 15.1513 18.3545 15.5548H11.5662C11.8624 15.2397 12.1865 14.9451 12.5384 14.6726ZM23.2891 14.2656C23.2891 14.9764 22.7108 15.5547 22 15.5547C21.2892 15.5547 20.7109 14.9764 20.7109 14.2656C20.7109 13.5548 21.2892 12.9766 22 12.9766C22.7108 12.9766 23.2891 13.5548 23.2891 14.2656ZM7.82031 41.4219H5.24219V23.2891H7.82031C7.82031 23.2803 7.8204 36.0167 7.82031 41.4219ZM10.3984 35.5648V29.0603L18.5291 32.3125L10.3984 35.5648ZM33.6016 35.5648L25.4709 32.3125L33.6016 29.0603V35.5648ZM33.6016 26.2835L22 30.9242L10.3984 26.2835V23.2891H33.6016V26.2835ZM38.7578 41.4219H36.1797C36.1797 39.1353 36.1797 26.0464 36.1797 23.2891H38.7578V41.4219ZM41.4219 20.7109H2.57812V18.1328H41.4219V20.7109Z" fill="black"/>
    </symbol>

    <symbol id="delivery">
    <path d="M33.2311 19.4117C30.1728 19.4117 27.6849 21.8997 27.6849 24.958C27.6849 28.0162 30.1728 30.5042 33.2311 30.5042C36.2899 30.5042 38.7773 28.0162 38.7773 24.958C38.7773 21.8997 36.2893 19.4117 33.2311 19.4117ZM33.2311 27.7311C31.7017 27.7311 30.458 26.4873 30.458 24.958C30.458 23.4286 31.7017 22.1849 33.2311 22.1849C34.7604 22.1849 36.0042 23.4286 36.0042 24.958C36.0042 26.4874 34.7604 27.7311 33.2311 27.7311Z" fill="black"/>
<path d="M14.2815 19.4117C11.2233 19.4117 8.73529 21.8997 8.73529 24.958C8.73529 28.0162 11.2233 30.5042 14.2815 30.5042C17.3398 30.5042 19.8278 28.0162 19.8278 24.958C19.8278 21.8997 17.3398 19.4117 14.2815 19.4117ZM14.2815 27.7311C12.7522 27.7311 11.5084 26.4873 11.5084 24.958C11.5084 23.4286 12.7522 22.1849 14.2815 22.1849C15.8104 22.1849 17.0546 23.4286 17.0546 24.958C17.0546 26.4874 15.8109 27.7311 14.2815 27.7311Z" fill="black"/>
<path d="M36.966 3.53667C36.7303 3.06848 36.251 2.77312 35.7269 2.77312H28.4243V5.54624H34.8718L38.6474 13.0558L41.1256 11.8097L36.966 3.53667Z" fill="black"/>
<path d="M29.0715 23.6177H18.5799V26.3908H29.0715V23.6177Z" fill="black"/>
<path d="M10.1218 23.6177H5.31515C4.54928 23.6177 3.92864 24.2384 3.92864 25.0042C3.92864 25.7701 4.54936 26.3907 5.31515 26.3907H10.1219C10.8878 26.3907 11.5084 25.77 11.5084 25.0042C11.5084 24.2383 10.8877 23.6177 10.1218 23.6177Z" fill="black"/>
<path d="M43.7088 15.1412L40.9815 11.6285C40.7195 11.2902 40.3151 11.0924 39.8866 11.0924H29.8109V1.38652C29.8109 0.62064 29.1902 0 28.4244 0H5.31515C4.54928 0 3.92864 0.620726 3.92864 1.38652C3.92864 2.1523 4.54936 2.77303 5.31515 2.77303H27.0378V12.4789C27.0378 13.2448 27.6586 13.8654 28.4243 13.8654H39.2076L41.2269 16.4666V23.6175H37.3907C36.6249 23.6175 36.0042 24.2382 36.0042 25.004C36.0042 25.7699 36.6249 26.3906 37.3907 26.3906H42.6134C43.3793 26.3906 43.9999 25.7698 44 25.004V15.9916C44 15.6838 43.8974 15.3843 43.7088 15.1412Z" fill="black"/>
<path d="M10.0294 16.5925H3.65123C2.88535 16.5925 2.26471 17.2132 2.26471 17.979C2.26471 18.7449 2.88544 19.3655 3.65123 19.3655H10.0293C10.7952 19.3655 11.4159 18.7448 11.4159 17.979C11.4159 17.2132 10.7952 16.5925 10.0294 16.5925Z" fill="black"/>
<path d="M13.2185 11.1386H1.38652C0.620727 11.1386 0 11.7594 0 12.5252C0 13.2911 0.620727 13.9117 1.38652 13.9117H13.2185C13.9844 13.9117 14.605 13.291 14.605 12.5252C14.605 11.7594 13.9844 11.1386 13.2185 11.1386Z" fill="black"/>
<path d="M15.4832 5.68486H3.65123C2.88535 5.68486 2.26471 6.30559 2.26471 7.07138C2.26471 7.83725 2.88544 8.45789 3.65123 8.45789H15.4832C16.2491 8.45789 16.8697 7.83717 16.8697 7.07138C16.8698 6.30559 16.2491 5.68486 15.4832 5.68486Z" fill="black"/>
    </symbol>

    <symbol id="materials">

    </symbol>

    <symbol id="materials">

    </symbol>

    <symbol id="materials">

    </symbol>
 </svg>
